<?xml version="1.0" encoding="UTF-8"?>
<svg id="Layer_2" data-name="Layer 2" xmlns="http://www.w3.org/2000/svg" viewBox="0 0 1608.01 314.4">
  <defs>
    <style>
      .cls-1 {
        fill: #ffffff;
      }
    </style>
  </defs>
  <g id="Ebene_1" data-name="Ebene 1">
    <g>
      <path class="cls-1" d="M1118.24,258.28c.5-6.16,1.39-12.29,2.22-18.42,1.4-10.37,2.88-20.74,4.32-31.1,1.44-10.27,2.88-20.54,4.31-30.82,1.42-10.18,2.82-20.36,4.26-30.54,1.51-10.74,2.96-21.49,4.63-32.21.4-2.59,1.36-5.16,2.48-7.54,1.23-2.62,3.43-4.46,6.51-4.46,8.1,0,9.1,5.47,9.16,9.38.06-3.9-.44-10.24-9.16-10.24-3.08,0-5.28,1.84-6.51,4.46-1.12,2.38-2.07,4.95-2.48,7.54-1.67,10.72-3.12,21.47-4.63,32.21-1.43,10.18-2.83,20.36-4.26,30.54-1.43,10.27-2.88,20.54-4.31,30.82-1.45,10.37-2.92,20.73-4.32,31.1-.83,6.13-1.72,12.26-2.22,18.42-.03.41-.05,1.01-.04,1.7,0-.32.02-.62.04-.84Z"/>
      <path class="cls-1" d="M689.97,3.62c-14.12,100.08-28.25,200.24-42.37,300.39-.16,1.12-.2,2.27-.29,3.4,0,.09.04.19.09.27.05.08.14.13.36.33h50.27c14.32-101.66,28.61-203.03,42.89-304.39h-50.94Z"/>
      <path class="cls-1" d="M806.23,10.66c.33-2.35.56-4.71.82-7.04h-50.82c-14.27,101.28-28.56,202.66-42.89,304.36,1.37.06,2.48.16,3.59.16,14.6.01,29.2,0,43.8,0,.57,0,1.15-.04,1.72,0,1.45.09,2-.66,2.16-2.03.42-3.5.94-6.98,1.43-10.47,1.61-11.4,3.23-22.8,4.84-34.21,1.65-11.69,3.29-23.37,4.94-35.06,1.42-10.08,2.84-20.17,4.25-30.25,1.41-10.08,2.82-20.17,4.24-30.26,1.81-12.82,3.65-25.63,5.45-38.45,1.8-12.82,3.56-25.64,5.37-38.46,1.82-12.91,3.68-25.82,5.51-38.73,1.87-13.19,3.74-26.38,5.58-39.58Z"/>
      <path class="cls-1" d="M148.97,63.33c-.02.07-2.05,14.67-3.04,21.55-1.6,11.12-3.2,22.23-4.8,33.35-1.63,11.3-3.27,22.61-4.9,33.91-1.61,11.21-3.21,22.42-4.83,33.63-1.63,11.3-3.27,22.61-4.91,33.91-1.65,11.4-3.25,22.8-4.96,34.19-1.15,7.65-1.79,15.33-1.3,23.06.38,5.92,1.54,11.7,3.98,17.16,3.66,8.16,9.49,13.98,18.25,16.49,6.58,1.89,13.23,1.55,19.8,0,6.57-1.56,12.76-3.94,17.16-9.52.33-.42,1.06-.52,1.98-.93.5,2.82.94,5.29,1.39,7.82h51.09c5.67-40.85,11.36-81.55,16.95-122.26,5.55-40.48,11.24-81.66,16.76-122.36h-52.72s-.05.28-.1.72c-.43,3.17-2.09,16.12-2.93,22.59-1.42,10.95-2.8,21.9-4.24,32.85-1.62,12.36-3.3,24.72-4.91,37.08-1.81,13.87-3.57,27.76-5.37,41.63-1.85,14.25-3.61,28.52-5.67,42.74-.73,5.06-2.06,10.05-3.44,14.99-.57,2.05-1.87,3.94-3.06,5.75-.99,1.5-2.54,2.19-4.44,2.09-2.98-.16-5.19-2.1-5.73-5.73-.41-2.8-.7-5.72-.39-8.52,1.36-12.3,2.93-24.57,4.49-36.85,1.39-10.95,2.9-21.89,4.32-32.84,1.62-12.46,3.18-24.93,4.81-37.39,1.62-12.46,3.29-24.91,4.93-37.37,1.5-11.42,2.99-22.84,4.45-34.26.07-.57.14-1.19.21-1.83.2-1.89.37-3.98.55-5.65h-49.37Z"/>
      <polygon class="cls-1" points="795.45 178.41 859.83 178.41 865.56 124.53 802.04 124.53 795.45 178.41"/>
      <path class="cls-1" d="M260.28,228.33c-1.82,13.1-3.67,26.2-5.5,39.31-1.68,12.07-3.36,24.13-5.01,36.2-.19,1.36-.27,2.21-.52,4.09.07,0,.15.02.23.02h46.59c2.59-.09,4.31-.19,4.7-.3.2-1.16.44-2.36.61-3.58.85-6.22,1.68-12.45,2.53-18.68,1.44-10.47,2.9-20.93,4.33-31.4,1.43-10.47,2.82-20.94,4.25-31.41,1.62-11.88,3.28-23.76,4.91-35.64,1.43-10.47,2.83-20.94,4.25-31.41,1.45-10.66,2.92-21.31,4.38-31.97,1.44-10.47,2.9-20.93,4.3-31.4,1.29-9.62,2.49-19.26,3.79-28.87.45-3.3.9-6.61,1.71-9.83.47-1.89,1.39-3.79,2.56-5.35,2.15-2.9,5.25-3.56,8.71-2.8,3.4.75,4.94,3.11,5.27,6.31.21,2.07.2,4.19-.04,6.26-.99,8.41-2.08,16.81-3.19,25.21-1.08,8.21-2.18,16.42-3.37,24.61-.55,3.79-1.7,7.42-3.9,10.63-1.56,2.28-3.61,3.92-6.3,4.66-2.64.73-2.61.71-2.98,3.3-1.25,8.95-2.54,17.9-3.8,26.86-.47,3.37-.9,6.75-1.36,10.19,4,1.35,5.64,4.4,6.37,8,.51,2.51,1.08,5.09.98,7.62-.22,5.51-.68,11.02-1.35,16.49-1.31,10.67-2.83,21.32-4.29,31.98-.92,6.69-1.82,13.39-2.88,20.06-.63,3.96-1.8,7.79-4.01,11.22-1.83,2.84-4.29,4.83-7.66,5.53-2.33.48-2.31.48-2.63,2.81-1.46,10.56-2.94,21.12-4.39,31.68-.41,2.99-.75,6-1.15,9.22.01,0,.03,0,.04,0h22.97c4.37-.24,8.77-.8,13.04-1.76,12.06-2.73,20.69-9.85,25.55-21.24,1.56-3.66,2.97-7.47,3.79-11.34,1.49-7.07,2.58-14.22,3.67-21.37,1.72-11.29,3.3-22.6,4.93-33.91,1.66-11.49,3.29-22.99,4.96-34.48.9-6.23,1.69-12.46,1.37-18.77-.47-9.09-4.58-15.74-12.98-19.58-.52-.24-1.07-.42-1.57-.7-.5-.28-.94-.66-1.61-1.14.98-.34,1.6-.57,2.23-.76,10.19-3.15,16.96-9.91,19.72-20.07,2.34-8.61,4.24-17.4,5.52-26.23,2.57-17.8,4.66-35.67,6.76-53.54.75-6.37.24-12.76-1.43-18.99-3.27-12.27-10.8-20.17-23.61-22.29-5.06-.84-8.96-1.29-15.32-1.67-1.89-.11-22.83-.47-38.63,1.2-14.71,1.56-25.99,8.89-32.68,22.44-1.09,2.21-2.06,4.51-2.92,6.82-4.16,11.25-5.8,23.03-7.4,34.83-1.42,10.47-2.9,20.93-4.35,31.39-1.41,10.18-2.83,20.36-4.23,30.55-1.42,10.28-2.81,20.56-4.23,30.83-1.62,11.69-3.28,23.37-4.9,35.07-1.62,11.69-3.19,23.39-4.81,35.08Z"/>
      <path class="cls-1" d="M933.2,307.97c6.06-26.33,12.07-52.56,18.15-78.77,6.08-26.19,12.01-52.41,18.18-78.55,2.63.43,2.65.43,2.66,2.35,0,1.43-.03,2.86-.1,4.29-.68,13.99-1.41,27.97-2.06,41.96-.86,18.65-1.66,37.3-2.49,55.96-.24,5.33-.52,10.66-.76,15.99-.52,11.42-1.04,22.84-1.53,34.26-.04.81.12,1.63.19,2.51h61.07c1.6-3.96,74.05-287.51,77.81-304.34h-57.76c-10.77,51.23-21.57,102.56-32.36,153.89-.26-.03-.51-.07-.77-.1.51-8.59,1-17.18,1.53-25.76.53-8.56,1.09-17.11,1.64-25.66.56-8.65,1.12-17.3,1.68-25.95.56-8.65,1.13-17.3,1.69-25.95.56-8.55,1.2-17.1,1.64-25.66.42-8.25,1.3-16.48,1.41-24.81h-63.95c-.23.98-.44,1.87-.63,2.77-1.26,5.96-2.5,11.92-3.76,17.88-5.23,24.86-10.47,49.72-15.69,74.59-4.42,21.05-8.83,42.1-13.26,63.14-.16.75-.51,1.46-.78,2.18-.26-.06-.52-.11-.79-.17,1.88-26.85,3.86-53.69,5.84-80.53,1.96-26.63,3.83-53.27,5.74-79.86h-58.58c-.05.42-.1.84-.11,1.27-.33,11.14-.68,22.28-.97,33.43-.59,22.38-1.14,44.76-1.71,67.15-.58,22.86-1.15,45.72-1.73,68.58-.57,22.57-1.16,45.14-1.71,67.72-.52,21.05-1,42.1-1.48,63.15-.02.99.15,1.99.24,3.07h63.48Z"/>
      <path class="cls-1" d="M381.43,307.94h50.87l2.98-9.98c.24-.38.51-.75.81-1.11.84,1.3,1.44,2.24,2.05,3.18,3.53,5.5,8.33,9.45,14.65,11.23,3.09.87,6.35,1.3,9.56,1.58,12.89,1.11,23.68-2.91,31.62-13.42,1.66-2.19,3.12-4.57,4.41-7,4.32-8.18,6.66-17.01,7.99-26.09,1.82-12.43,3.43-24.89,5.09-37.34,2.49-18.68,4.98-37.36,7.43-56.04,2.6-19.82,5.2-39.63,7.71-59.46,1.29-10.14,1.62-20.32.4-30.49-.62-5.13-1.82-10.12-4.31-14.71-3.64-6.7-9.2-10.58-16.89-11.05-12.16-.74-23.99.56-35.09,6.03-.89.44-1.84.74-3.26,1.3,2.73-20.62,5.39-40.65,8.07-60.92h-51.19c-14.38,101.13-28.71,201.94-43.03,302.76-.06.44.08.91.15,1.55ZM441.31,249.52c1.54-12.37,3.17-24.74,4.77-37.1,1.41-10.86,2.8-21.71,4.23-32.56,1.43-10.85,2.89-21.7,4.34-32.55,1.21-9.06,2.3-18.13,3.68-27.16.48-3.16,1.42-6.31,2.58-9.31,1.13-2.93,3.55-4.32,6.82-4.15,2.88.15,4.8,1.23,5.6,3.98.66,2.25.8,4.65,1.1,6.6-.84,6.79-1.6,13.12-2.39,19.45-1.23,9.82-2.49,19.64-3.73,29.46-1.23,9.73-2.45,19.45-3.68,29.18-1.25,9.92-2.49,19.83-3.78,29.74-1.09,8.4-2.21,16.8-3.43,25.18-.26,1.76-.93,3.49-1.63,5.15-1.29,3.05-3.65,4.56-7.02,4.29-1.13-.09-2.26-.28-3.38-.5-2.36-.45-3.7-2-3.99-4.28-.22-1.78-.31-3.63-.09-5.4Z"/>
      <path class="cls-1" d="M1327.82,307.3c0,.09.04.19.08.27.04.08.12.14.35.39h50.24c.45-3.04.87-5.86,1.29-8.67,1.83-12.33,3.67-24.67,5.48-37,1.81-12.34,3.6-24.68,5.4-37.01,1.64-11.21,3.3-22.41,4.95-33.62,1.62-11.02,3.29-22.03,4.86-33.05,1.66-11.59,3.24-23.19,4.86-34.78.61-4.35,1.37-8.66,3.46-12.59,1.24-2.32,2.86-4.27,5.44-5.22,3.9-1.45,7.14,0,8.41,3.92.46,1.43.81,2.99.75,4.48-.18,4.75-.27,9.53-.95,14.22-2.23,15.45-4.73,30.85-7.05,46.29-2.03,13.46-3.96,26.93-5.95,40.39-2.01,13.56-4.05,27.11-6.07,40.66-2.26,15.16-4.51,30.31-6.74,45.47-.31,2.11-.51,4.23-.76,6.31,3.88.66,49.39.49,51.59-.15.08-.4.2-.85.27-1.31.82-5.75,1.62-11.5,2.44-17.25,1.83-12.81,3.68-25.63,5.49-38.44,1.81-12.82,3.57-25.64,5.39-38.46,1.81-12.82,3.68-25.63,5.5-38.44s3.63-25.63,5.37-38.46c1.64-12.17,3.33-24.33,4.69-36.53.8-7.13.26-14.29-1.45-21.28-2.39-9.79-7.73-17.15-17.68-20.37-7.39-2.39-14.94-2.75-22.57-1.12-6.16,1.32-11.65,4.12-16.98,7.32-.85.51-1.75.96-3.3,1.82,2.86-20.94,6.06-41.07,8.85-61.66h-17.77c-5.82,0-11.64-.05-17.46.02-5.77.07-11.55-.3-17.38.24-14.38,100.93-28.71,201.56-43.03,302.19-.07.46-.02.95,0,1.42Z"/>
      <path class="cls-1" d="M601.84,147.33c-.51,2.62-1.55,4.19-3.93,5.33-10.23,4.9-20.4,9.9-30.57,14.92-7.61,3.76-15.23,7.49-22.29,12.24-7.26,4.88-12.73,11.27-15.77,19.46-1.94,5.25-3.72,10.64-4.73,16.12-1.77,9.53-3.01,19.17-4.26,28.79-1.27,9.74-1.91,19.54-1.5,29.36.3,7.16,1.17,14.24,3.91,20.95,3.29,8.07,8.83,13.79,17.45,15.93,11.28,2.81,21.97,1.71,31.46-5.64,2.79-2.16,5.47-4.45,8.23-6.65.61-.49,1.12-1.41,2.36-.69-.28,3.37-.57,6.83-.88,10.46h49.17c1.79-12.11,3.54-23.87,5.28-35.64,1.65-11.2,3.29-22.41,4.93-33.62,1.6-10.92,3.22-21.85,4.82-32.77,1.63-11.11,3.26-22.23,4.89-33.34,1.81-12.34,3.71-24.66,5.41-37.01,1.39-10.09,2.69-20.19,3.79-30.32.81-7.48,1.3-14.99.27-22.52-1.22-8.94-5.02-16.15-13.43-20.27-2.56-1.25-15.71-7.97-36.92-7.97-33.56,0-43.03,5.74-48.98,9.66-7.64,5.03-12.9,11.74-15.58,20.49-2.07,6.77-3.1,13.74-3.92,20.73-.99,8.51-1.85,17.04-2.71,25.56-.31,3.09-.49,6.2-.75,9.53h48.92c.2-.76.46-1.38.52-2.02.44-4.36.75-8.73,1.28-13.08.65-5.38,1.32-10.77,2.31-16.09.41-2.18,1.43-4.36,2.61-6.26,1.87-3,5.49-4.2,8.75-3.35,2.97.77,4.64,2.98,4.83,6.94.14,2.94.08,5.91-.18,8.85-.96,10.72-2.75,21.32-4.79,31.89ZM587.36,253.43c-.32,1.65-1.06,3.25-1.8,4.78-1.07,2.2-2.79,3.64-5.41,3.48-2.73-.17-5.11-1.15-6.17-3.86-.64-1.65-1.19-3.49-1.17-5.23.05-4.37.3-8.74.73-13.09.58-5.87,1.4-11.71,2.14-17.56.43-3.42,1.33-6.72,3.02-9.75,2.38-4.27,5.93-6.94,10.63-8.48,1.33-.43,2.65-.43,4.2-.43-.43,4.94-5.27,45.48-6.16,50.14Z"/>
      <path class="cls-1" d="M1095.74,83.07c-4,7.9-5.98,16.44-7.3,25.12-1.02,6.68-1.73,13.4-2.65,20.1-1.21,8.87-2.47,17.72-3.71,26.58-1.4,9.99-2.81,19.98-4.22,29.97-1.64,11.59-3.28,23.18-4.92,34.78-1.44,10.18-2.84,20.36-4.31,30.54-1.3,9.06-2.48,18.12-2.02,27.31.27,5.38,1.32,10.6,3.6,15.48,4.55,9.78,11.45,16.85,22.68,18.39,5.47.75,10.96,1.37,16.47,1.71,12.68.78,25.37.73,38-.83,4.84-.6,9.56-1.81,13.73-4.51,11.14-7.21,18.71-17.04,21.45-30.14,1.32-6.32,2.13-12.76,3.05-19.16,1.88-13,3.7-26.01,5.5-39.02,2.38-17.16,4.67-34.33,7.08-51.49,2.89-20.55,5.92-41.07,8.75-61.63.98-7.1,1.13-14.24-.33-21.33-1.79-8.68-6.3-15.43-14.15-19.79-3.96-2.2-8.21-3.52-12.69-4.14-9.84-1.35-19.73-1.92-30.08-1.81-8.56-.06-17.49.22-26.37,1.76-9.19,1.59-16.65,5.93-22.2,13.36-2.04,2.73-3.85,5.69-5.39,8.73ZM1118.24,257.42c.5-6.16,1.39-12.29,2.22-18.42,1.4-10.37,2.88-20.74,4.32-31.1,1.44-10.27,2.88-20.54,4.31-30.82,1.42-10.18,2.82-20.36,4.26-30.54,1.51-10.74,2.96-21.49,4.63-32.21.4-2.59,1.36-5.16,2.48-7.54,1.23-2.62,3.43-4.46,6.51-4.46,8.72,0,9.21,6.33,9.16,10.24,0,.52-.02,1-.03,1.41-.08,3.52-1.39,11.1-2.14,16.76-1.41,10.56-2.85,21.12-4.29,31.68-1.42,10.47-2.85,20.93-4.28,31.4-1.24,9.15-2.46,18.3-3.73,27.44-1.68,12.06-3.31,24.13-5.21,36.16-.43,2.75-1.61,5.48-2.93,7.97-1.63,3.09-4.44,4.37-8.07,4.37-6.08,0-7.18-6.91-7.25-10.64-.01-.7,0-1.3.04-1.7Z"/>
      <path class="cls-1" d="M1607.5,87.73c-1.72-14.24-10.72-24.4-24.74-27.03-5.88-1.1-11.88-1.85-17.85-2.09-12.86-.53-25.72-.71-38.56.92-12.44,1.58-21.74,7.59-28.04,18.37-3.1,5.3-5.24,10.98-6.83,16.89-2.49,9.22-3.5,18.68-4.72,28.12-2.15,16.61-17.04,121.67-19.04,136.28-.96,7-1.35,14.04-.77,21.09.48,5.84,2.08,11.4,4.99,16.55,4.59,8.14,11.05,13.63,20.56,15.3,5.56.98,11.13,1.52,16.75,1.8,12.78.64,25.55.69,38.28-.85,4.55-.55,9.06-1.6,13-4.06,8.94-5.6,15.98-12.9,20.06-22.8,2.38-5.77,3.69-11.81,4.49-17.95,1.97-15.2,3.81-30.41,5.66-45.62.15-1.27.02-2.57.02-4.19-16.24.2-32.22.39-48.18.59-.26,1.01-.5,1.64-.59,2.29-1.4,10.18-2.67,20.38-4.21,30.54-.61,4.02-1.6,8.02-2.83,11.9-.58,1.81-1.87,3.6-3.31,4.88-4.82,4.29-11.79,1.83-12.89-4.5-.37-2.14-.55-4.38-.33-6.53.6-5.87,1.42-11.72,2.24-17.56,1.61-11.4,3.29-22.79,4.95-34.19.62-4.22,1.26-8.44,1.95-13.03,11.39-.24,22.62-.09,33.85-.12,11.34-.03,22.68,0,34.33,0,.59-4.4,1.11-8.25,1.63-12.1,1.44-10.56,2.87-21.12,4.33-31.68,1.62-11.69,3.3-23.37,4.91-35.06,1.2-8.69,1.97-17.38.91-26.18ZM1556.01,116.21c-.73,6.42-1.54,12.84-2.36,19.25-.6,4.71-1.27,9.42-1.93,14.13-.08.55-.26,1.08-.44,1.83h-17.95c.14-1.68.2-3.25.4-4.81,1.27-9.52,2.55-19.03,3.87-28.54.5-3.58,1.16-7.14,2.95-10.36,1.79-3.21,4.48-4.78,8.23-4.51,3.09.22,5.18,1.73,6.26,4.6,1.02,2.72,1.3,5.57.97,8.43Z"/>
      <path class="cls-1" d="M1198.67,267.57c-.98,8.2-.43,16.4,2.63,24.2,4.36,11.11,11.78,18.86,24.14,20.62,5.09.72,10.22,1.19,15.35,1.51,12.78.79,25.55.75,38.28-.78,4.56-.55,9.08-1.55,13.02-4.01,10.04-6.26,17.85-14.51,22.31-25.65,2.64-6.6,3.95-13.51,4.93-20.49,2.53-18.1,4.99-36.21,7.47-54.31.21-1.56.33-3.13.51-4.88h-51.02c-.22,1.12-.46,2.12-.61,3.13-.29,1.98-.51,3.97-.78,5.95-1.67,12.16-3.29,24.33-5.04,36.49-.6,4.14-1.27,8.29-2.39,12.31-.64,2.3-1.98,4.55-3.49,6.44-2.1,2.63-5.24,3.03-8.37,2.31-3.04-.7-4.61-3-5.09-5.92-.34-2.05-.56-4.19-.35-6.24.71-6.81,1.57-13.61,2.51-20.4,1.77-12.73,3.65-25.44,5.46-38.16,1.81-12.72,3.58-25.45,5.38-38.17,1.87-13.19,3.71-26.39,5.64-39.57.55-3.76,1.21-7.52,2.17-11.19.49-1.87,1.52-3.71,2.7-5.28,2.06-2.75,5.12-3.21,8.27-2.58,3.03.61,4.69,2.8,5.34,5.71.33,1.48.65,3.03.55,4.51-.34,4.65-.73,9.3-1.37,13.91-1.51,10.94-3.19,21.85-4.78,32.77-.08.52.06,1.07.11,1.74h51.08c.43-2.97.84-5.87,1.26-8.76,2.32-16.11,4.74-32.2,6.93-48.33.9-6.62.86-13.3-.24-19.93-2.18-13.13-11.07-21.51-24.2-24.42-10.96-2.43-41.96-3.21-61.28-.48-9.54,1.35-17.15,6.03-22.85,13.8-2.73,3.71-4.86,7.73-6.57,11.99-3.73,9.27-5.44,19-6.73,28.83-1.22,9.34-2.36,18.7-3.64,28.03-1.77,12.82-3.65,25.63-5.46,38.45-2,14.23-4,28.46-5.94,42.7-2,14.71-4.07,29.41-5.82,44.16Z"/>
      <path class="cls-1" d="M77.98,168.95c15.87-.06,31.37.02,47.16-.05,2.18-17.39,4.51-34.4,6.54-51.84-7.96,0-38.18.11-46.16-.11,3.15-21.98,6.23-43.5,9.36-65.35,20.49-.07,40.68-.14,61.19-.21,2.39-16.03,4.74-31.79,7.12-47.78H43.33C28.88,105.11,14.45,206.43,0,307.95h58.13c6.62-46.35,13.22-92.56,19.85-139Z"/>
    </g>
  </g>
</svg>