<?xml version="1.0" encoding="UTF-8"?>
<svg id="Layer_2" data-name="Layer 2" xmlns="http://www.w3.org/2000/svg" viewBox="0 0 289.96 147.25">
  <defs>
    <style>
      .cls-1 {
        fill: #ffffff;
      }
    </style>
  </defs>
  <g id="Ebene_1" data-name="Ebene 1">
    <g>
      <path class="cls-1" d="M62.56,53.9c-3.78,0-18.14.05-21.93-.05,1.5-10.44,2.96-20.67,4.45-31.05,9.73-.03,19.32-.06,29.07-.1,1.14-7.61,2.25-15.1,3.38-22.7H20.59C13.72,48.22,6.87,96.35,0,144.59h27.62c3.15-22.02,6.28-43.97,9.43-66.04,7.54-.03,14.9,0,22.41-.02,1.04-8.26,2.14-16.34,3.11-24.63Z"/>
      <path class="cls-1" d="M102.04,28.71c-.21,1.51-.99,7.66-1.39,10.73-.67,5.2-1.33,10.41-2.01,15.61-.77,5.87-1.57,11.74-2.33,17.62-.86,6.59-1.7,13.19-2.55,19.78-.88,6.77-1.72,13.55-2.69,20.31-.35,2.4-.98,4.78-1.63,7.12-.27.97-.89,1.87-1.46,2.73-.47.71-1.21,1.04-2.11.99-1.42-.08-2.47-1-2.72-2.72-.2-1.33-.33-2.72-.19-4.05.65-5.84,1.39-11.68,2.13-17.51.66-5.2,1.38-10.4,2.05-15.6.77-5.92,1.51-11.84,2.28-17.76.77-5.92,1.56-11.84,2.34-17.75.71-5.43,1.42-10.85,2.12-16.28.03-.27.07-.57.1-.87.09-.9.18-1.89.26-2.68h-23.46s-.98,6.97-1.44,10.24c-.76,5.28-1.52,10.56-2.28,15.84-.77,5.37-1.56,10.74-2.33,16.11-.77,5.33-1.53,10.65-2.29,15.98-.77,5.37-1.55,10.74-2.33,16.11-.78,5.42-1.54,10.83-2.35,16.24-.55,3.64-.85,7.28-.62,10.96.18,2.81.73,5.56,1.89,8.15,1.74,3.88,4.51,6.64,8.67,7.83,3.13.9,6.29.74,9.4,0,3.12-.74,6.06-1.87,8.15-4.52.16-.2.51-.25.94-.44.24,1.34.45,2.51.66,3.71h24.27c2.69-19.41,5.4-38.74,8.05-58.09,2.64-19.23,5.34-38.8,7.96-58.13h-25.05s-.02.13-.05.34Z"/>
      <path class="cls-1" d="M213.41,0c-5.12,24.34-10.25,48.73-15.37,73.11-.12-.02-.24-.03-.36-.05.24-4.08.47-8.16.73-12.24.25-4.06.52-8.13.78-12.19.27-4.11.53-8.22.8-12.33.27-4.11.54-8.22.8-12.33.26-4.06.57-8.13.78-12.19.2-3.92.62-7.83.67-11.79h-30.38c-.11.47-.21.89-.3,1.32-.6,2.83-1.19,5.66-1.79,8.49-2.49,11.81-4.97,23.62-7.46,35.44-2.1,10-4.19,20-6.3,30-.07.36-.24.69-.37,1.04-.12-.03-.25-.05-.37-.08.89-12.76,1.83-25.51,2.77-38.26.93-12.65,1.82-25.31,2.73-37.94h-27.83c-.02.2-.05.4-.05.6-.16,5.29-.32,10.59-.46,15.88-.28,10.63-.54,21.27-.81,31.9-.27,10.86-.55,21.72-.82,32.58-.27,10.72-.55,21.45-.81,32.17-.24,10-.48,20-.7,30-.01.47.07.95.12,1.46h30.16c2.88-12.51,5.73-24.97,8.62-37.42,2.89-12.44,5.7-24.9,8.64-37.32,1.25.2,1.26.2,1.26,1.12,0,.68-.02,1.36-.05,2.04-.32,6.64-.67,13.29-.98,19.93-.41,8.86-.79,17.72-1.18,26.58-.11,2.53-.25,5.06-.36,7.59-.25,5.43-.49,10.85-.73,16.28-.02.38.06.77.09,1.19h29.01c.76-1.88,35.18-136.6,36.97-144.59h-27.44Z"/>
      <path class="cls-1" d="M282.72,29.24c-1.88-1.04-3.9-1.67-6.03-1.97-4.68-.64-9.37-.91-14.29-.86-4.06-.03-8.31.11-12.53.84-4.37.75-7.91,2.82-10.54,6.35-.97,1.3-1.83,2.7-2.56,4.15-1.9,3.75-2.84,7.81-3.47,11.94-.48,3.17-.82,6.37-1.26,9.55-.57,4.21-1.17,8.42-1.76,12.63-.67,4.75-1.33,9.49-2,14.24-.78,5.51-1.56,11.01-2.34,16.52-.68,4.84-1.35,9.67-2.05,14.51-.62,4.3-1.18,8.61-.96,12.97.13,2.56.63,5.04,1.71,7.36,2.16,4.65,5.44,8,10.78,8.74,2.6.36,5.21.65,7.82.81,6.02.37,12.05.34,18.05-.39,2.3-.28,4.54-.86,6.53-2.14,5.29-3.43,8.89-8.09,10.19-14.32.63-3,1.01-6.06,1.45-9.1.89-6.18,1.76-12.36,2.61-18.54,1.13-8.15,2.22-16.31,3.36-24.46,1.37-9.76,2.81-19.51,4.16-29.28.46-3.37.54-6.77-.15-10.14-.85-4.12-2.99-7.33-6.72-9.4ZM265.44,52.44c-.04,1.67-.66,5.27-1.02,7.96-.67,5.02-1.35,10.04-2.04,15.05-.68,4.97-1.35,9.94-2.03,14.92-.59,4.35-1.17,8.69-1.77,13.04-.8,5.73-1.57,11.47-2.48,17.18-.21,1.31-.77,2.61-1.39,3.79-.77,1.47-2.11,2.07-3.83,2.07-3.43,0-3.52-4.64-3.43-5.86.24-2.93.66-5.84,1.05-8.75.67-4.93,1.37-9.85,2.05-14.78.68-4.88,1.37-9.76,2.05-14.64.68-4.84,1.34-9.67,2.02-14.51.72-5.1,1.41-10.21,2.2-15.3.19-1.23.65-2.45,1.18-3.58.58-1.25,1.63-2.12,3.09-2.12,4.69,0,4.37,3.86,4.33,5.53Z"/>
    </g>
  </g>
</svg>